PathFileType	4	(X/Y/Z)	Patient4_TMGait_0pt6_02_right_39.trc.trc
DataRate	CameraRate	NumFrames	NumMarkers	Units	OrigDataRate	OrigDataStartFrame	OrigNumFrames
83.832335329341	83.832335329341	6	33	mm	83.832335329341	18	       141
Frame#	Time	Sacral			L.Shoulder			Chest			R.Shoulder			Neck			R.ASIS			L.ASIS			R.Thigh.Superior			R.Thigh.Lateral			R.Thigh.Inferior			R.Patella			L.Thigh.Superior			L.Thigh.Lateral			L.Thigh.Inferior			L.Patella			L.Shank.Superior			L.Shank.Lateral			L.Shank.Inferior			R.Shank.Superior			R.Shank.Lateral			R.Shank.Inferior			R.Heel			R.Midfoot.Superior			R.Midfoot.Lateral			R.Toe			L.Heel			L.Midfoot.Lateral			L.Midfoot.Superior			L.Toe			L.Elbow			L.Wrist			R.Elbow			R.Wrist			
		X1	Y1	Z1	X2	Y2	Z2	X3	Y3	Z3	X4	Y4	Z4	X5	Y5	Z5	X6	Y6	Z6	X7	Y7	Z7	X8	Y8	Z8	X9	Y9	Z9	X10	Y10	Z10	X11	Y11	Z11	X12	Y12	Z12	X13	Y13	Z13	X14	Y14	Z14	X15	Y15	Z15	X16	Y16	Z16	X17	Y17	Z17	X18	Y18	Z18	X19	Y19	Z19	X20	Y20	Z20	X21	Y21	Z21	X22	Y22	Z22	X23	Y23	Z23	X24	Y24	Z24	X25	Y25	Z25	X26	Y26	Z26	X27	Y27	Z27	X28	Y28	Z28	X29	Y29	Z29	X30	Y30	Z30	X31	Y31	Z31	X32	Y32	Z32	X33	Y33	Z33	

18	47.242785714286	802.433692131924	1011.553650334780	470.551336933524	1029.279875045099	1436.446770705460	317.489051458548	1110.934276757233	1351.557718461298	481.956068032807	1016.638193326021	1429.121069841160	648.688753332138	1023.325329102158	1489.277422071443	468.307318807914	1018.311491737718	941.993200267285	604.930285900993	1026.648777911118	957.388052204753	324.259710916997	1091.326115189479	771.894889898019	582.011573234108	1047.800333649756	652.464983772003	658.961273159228	1135.951681709418	612.314665151831	578.992999565726	1170.751911393663	530.807572706269	598.682910902169	1027.475919985694	729.809638099863	363.872015940128	917.109656541771	633.575146046550	296.882793936565	974.189920650826	541.366554961258	365.994498109130	958.536182304962	474.557852309108	376.810549171179	925.767269632851	408.422616146834	367.670871040349	825.883204449236	305.746930511673	312.620394881545	855.032680492941	190.504771964104	388.847785956204	1154.615031087098	443.426993100053	611.433708903269	1103.418825846539	331.121929186600	679.064985199357	1173.278573396244	244.455946403818	629.010493764307	1084.031211364367	54.488996751042	605.895012811381	1246.714530874506	132.802282859708	644.659574273960	1170.546555340760	52.808913883950	677.439462474421	1372.402407327616	96.624285791081	664.848495778622	709.160383395963	42.282556647119	422.345327573316	788.233768912378	37.837004707820	347.737609458061	871.142012521171	96.160394612161	379.645746536152	999.528956067957	39.356733610281	359.441551990191	1025.279607737773	1105.701957976902	160.605911462139	1257.043090471713	1085.303988000692	259.997028030536	885.314256858523	1106.230128677583	755.884301312083	927.348952184071	846.463981474727	744.820131577285	
19	47.254714285714	803.583773098275	1009.699507031757	472.774529793721	1028.345220908146	1435.540683172091	319.376190713203	1110.678783379522	1350.787696945145	483.624923847037	1016.519317292141	1427.863836087697	650.546405867552	1022.405544787753	1488.146555020959	470.144613039954	1019.704014186997	940.337473066989	606.438440770603	1025.832640025522	954.414466380578	328.553971302350	1090.338784227815	767.548583098285	584.164235836887	1044.169134694193	648.628490741849	660.505992348922	1131.539140337333	607.541768318327	580.164217020356	1164.989284696045	527.178398459652	599.216280386425	1026.512775537063	728.148423068052	365.139451817468	914.987319820937	632.939930715115	297.994823764282	971.178723371222	540.151527568964	366.828743618220	954.943936692689	473.197795617470	377.540830165966	921.467664537181	407.390821318344	368.339333729428	820.518223040330	305.741249881765	313.133411799111	848.679389080863	190.077308117625	389.083777506955	1150.784003819367	439.892389801528	612.122264017359	1101.274523940713	326.215407872610	678.683073621359	1173.488081069567	241.224400746415	628.699437886542	1088.297318229830	49.925305260221	604.062859194451	1249.597867373504	130.298108552160	643.756678196640	1174.388814284173	49.535646474175	676.094927561505	1375.778026450776	95.944132776097	664.673944095389	701.931002460555	42.413175836217	422.304972583794	781.020477896568	37.881141048401	347.738251882695	863.943567917595	96.110412926363	379.663335991535	992.281863288361	39.282902205252	359.413253132653	1027.238851237564	1104.881832455561	162.490999140167	1258.889757540258	1088.877256838840	262.714509871938	888.182929188711	1103.821111968082	758.153257737936	934.914099048403	844.987990056488	745.213799753770	
20	47.266642857143	804.883281627460	1007.754422633837	475.147257930475	1027.328443160415	1434.597440948122	321.445132505370	1110.457615292846	1350.044825831040	485.468214868828	1016.389781755642	1426.559549839437	652.608149127582	1021.428867129272	1486.983604702497	472.175500895710	1021.257041324889	938.602042488385	608.091926556781	1025.641999645456	951.864576496285	332.377825560623	1089.948422400849	763.609859628040	586.390010077278	1041.167876360354	644.966391542646	661.717806576097	1128.138183276837	603.357489409975	581.366339489709	1159.965996889681	523.597969876982	599.722526716646	1025.979636452054	726.500800373720	366.494468395196	913.325611663859	632.234481144528	299.269654190991	968.743972162453	538.882800660395	367.819016883049	951.999503640281	471.670140098521	378.408705330883	917.659836517392	406.221012170120	369.132241526209	815.495635256286	305.765911827453	313.723414575272	842.476243614790	189.626878155353	389.347004475653	1147.055235634580	436.185493836270	612.557462537250	1098.015325597248	321.609489100051	677.667665441317	1171.821693327108	237.771383378163	627.885406335753	1088.799102905382	46.596558692299	601.505298448293	1249.402786698224	126.968599507634	642.123255620763	1174.293534743011	46.570625231370	674.107068582633	1375.567630533768	93.008228750166	663.904646901300	694.683404964879	42.648836999218	422.215920601028	773.815297218271	37.945437333842	347.715259628452	856.786954711408	96.075454888726	379.655253062695	985.059883264647	39.200180555139	359.375517113159	1028.616486820637	1104.016194886271	164.493623591402	1260.233169037467	1091.814469861542	265.176699991877	891.405382169367	1101.257440521526	760.650104960461	943.000060330958	843.496708720411	746.003548150541	
21	47.278571428571	806.285913308574	1005.786353175538	477.647840111536	1026.261761921491	1433.636176485175	323.706419593786	1110.292775693694	1349.340403552779	487.493211936071	1016.282491333707	1425.241281933462	654.886982029650	1020.445462135210	1485.818840855761	474.411423655372	1022.941043739282	936.829765838625	609.898393977120	1026.053854792274	949.796364120493	335.665037931792	1090.188151168532	760.141507174212	588.677291397185	1038.794673752551	641.534430128807	662.560291627016	1125.810367737836	599.818047057154	582.605297821650	1155.778965192869	520.138568243101	600.131444856107	1025.905755992467	724.910399511712	367.910304233553	912.197454443039	631.447783838553	300.712569829395	967.026198309145	537.561287795567	368.956929775789	949.872333490796	469.953102737429	379.388759757136	914.466814223551	404.898788680695	370.045919494935	810.907717134096	305.852389581614	314.401813247558	836.484373355673	189.177764592542	389.632233961573	1143.588957839630	432.408264299065	612.707677908284	1094.008936196746	317.352170792970	676.194351468504	1168.638438588059	234.133700893979	626.651693861108	1085.975402193527	44.302813589813	598.556717245790	1246.577624755873	122.947534911046	639.877870778349	1170.816193311426	43.920845086866	671.754147030561	1372.350003536847	88.140464358088	662.601265848201	687.428780553408	43.068268298431	422.075814423549	766.627720560665	38.061683002912	347.667554339602	849.710999500290	96.065489469479	379.610186865174	977.872149408368	39.110823460673	359.329756654266	1029.384093084157	1103.100065670404	166.619277079764	1261.081837287262	1094.045571070778	267.369609861452	894.951331683458	1098.589678335216	763.338383993107	951.528333045001	842.031043494876	747.210758616042	
22	47.290500000000	807.738406042788	1003.870842565766	480.249449974631	1025.182337047687	1432.690652616005	326.167932303279	1110.206236739582	1348.690049252785	489.701577105355	1016.240172027888	1423.947535694631	657.390821787498	1019.512913781508	1484.691635060333	476.862942103604	1024.724174967907	935.078614435753	611.851888875688	1026.966649730205	948.210670631491	338.442026085251	1091.047819112863	757.176760596184	591.004982781966	1037.030572845715	638.402615666458	663.051317033733	1124.533407455463	596.940108472599	583.876598505616	1152.473566436600	516.878162995040	600.390762352668	1026.309976474948	723.428449991735	369.358942538286	911.682881979979	630.567944217315	302.321832439959	966.180148663083	536.193451295495	370.226834144788	948.744919337422	468.032161207814	380.441445074392	912.022246702076	403.418302651356	371.067906946898	806.858914010252	306.045683697566	315.178506701806	830.781707475046	188.768661289489	389.930382780162	1140.520824461280	428.694243529971	612.582657739899	1089.665651465331	313.520626575993	674.490671612586	1164.371597815060	230.419737378773	625.121082402414	1080.468978865786	42.844957834960	595.558081500189	1241.685477550491	118.491628701783	637.194959620163	1164.697321838652	41.629774884241	669.321883709759	1366.824400106598	81.892648245251	660.874907489553	680.191476480928	43.780410155773	421.887638508255	759.473256292702	38.281714895747	347.596748380496	842.767952875569	96.094157402810	379.516358655308	970.727145362846	39.017936680130	359.279322939622	1029.519753453603	1102.143569323248	168.879982509051	1261.444947201856	1095.498050952604	269.283439475321	898.790134337090	1095.878231068351	766.184389603981	960.415964107627	840.635412179234	748.857089012895	
23	47.302428571429	809.183918650635	1002.086601379723	482.920990343816	1024.131094588924	1431.809864902722	328.831811001594	1110.216626116907	1348.114592708314	492.088067095066	1016.309011157097	1422.720756302639	660.119020336177	1018.690781452754	1483.649164102494	479.537402638049	1026.570174283851	933.420255246846	613.933082059898	1028.228691579364	947.076565783177	340.792210979590	1092.471458981032	754.731524897193	593.338178201357	1035.855878825589	635.658013178635	663.261282431265	1124.208797085886	594.711576204627	585.162741598639	1150.046912253506	513.903102155126	600.486385730176	1027.202473401820	722.112930020440	370.816956970713	911.868701871529	629.585448126973	304.088142420250	966.367879878609	534.794433175122	371.607965647825	948.801860960390	465.905991421982	381.516707204816	910.467230193787	401.787343384087	372.175914637978	803.465142377469	306.406587122241	316.061009593679	825.464959553528	188.455982470335	390.228997696007	1137.949101074751	425.196610812276	612.237605350145	1085.381235746661	310.209350255501	672.807891886076	1159.470505705342	226.789318085926	623.445719960514	1073.035535021156	42.034901161416	592.808215235596	1235.331079384352	113.934433918727	634.297874974284	1156.760595877831	39.747424479214	667.065852799938	1359.723483443860	74.954221640249	658.890159573470	673.014775411804	44.929174111198	421.661477768968	752.376563631980	38.684003386388	347.508109895438	836.025346923579	96.181083729271	379.363293743831	963.631943404358	38.923805281507	359.229003988424	1029.008561037244	1101.174951044288	171.294779829124	1261.330341554371	1096.099523021937	270.913109399701	902.892268714168	1093.190019813653	769.159624146208	969.578026932883	839.355465279310	750.963954197545	
